HIERARCHY
ROOT Hips
{
  OFFSET -65.5801 106.192 -22.9641
  CHANNELS 6 Xposition Yposition Zposition Zrotation Xrotation Yrotation
  JOINT ToSpine
  {
    OFFSET -2.69724 7.43032 -0.144315
    CHANNELS 3 Zrotation Xrotation Yrotation
    JOINT Spine
    {
      OFFSET -0.0310711 10.7595 1.96963
      CHANNELS 3 Zrotation Xrotation Yrotation
      JOINT Spine1
      {
        OFFSET 19.9056 3.91189 0.764692
        CHANNELS 3 Zrotation Xrotation Yrotation
        JOINT Neck
        {
          OFFSET 25.9749 7.03908 -0.130764
          CHANNELS 3 Zrotation Xrotation Yrotation
          JOINT Head
          {
            OFFSET 9.52751 0.295786 -0.907742
            CHANNELS 3 Zrotation Xrotation Yrotation
            End Site
            {
              OFFSET 16.4037 0.713936 2.7358
            }
          }
        }
        JOINT LeftShoulder
        {
          OFFSET 17.7449 4.33886 11.7777
          CHANNELS 3 Zrotation Xrotation Yrotation
          JOINT LeftArm
          {
            OFFSET 0.911315 1.27913 9.80584
            CHANNELS 3 Zrotation Xrotation Yrotation
            JOINT LeftForeArm
            {
              OFFSET 28.6126 1.18197 -3.53199
              CHANNELS 3 Zrotation Xrotation Yrotation
              JOINT LeftHand
              {
                OFFSET 27.5088 0.0218783 0.327423
                CHANNELS 3 Zrotation Xrotation Yrotation
                End Site
                {
                  OFFSET 18.6038 -0.000155887 0.382096
                }
              }
            }
          }
        }
        JOINT RightShoulder
        {
          OFFSET 17.1009 2.89543 -12.2328
          CHANNELS 3 Zrotation Xrotation Yrotation
          JOINT RightArm
          {
            OFFSET 1.4228 0.178766 -10.211
            CHANNELS 3 Zrotation Xrotation Yrotation
            JOINT RightForeArm
            {
              OFFSET 28.733 1.87905 2.64907
              CHANNELS 3 Zrotation Xrotation Yrotation
              JOINT RightHand
              {
                OFFSET 27.4588 0.290562 -0.101845
                CHANNELS 3 Zrotation Xrotation Yrotation
                End Site
                {
                  OFFSET 17.8396 -0.255518 -0.000602873
                }
              }
            }
          }
        }
      }
    }
  }
  JOINT LeftUpLeg
  {
    OFFSET -5.61296 -2.22332 -10.2353
    CHANNELS 3 Zrotation Xrotation Yrotation
    JOINT LeftLeg
    {
      OFFSET 2.56703 -44.7417 -7.93097
      CHANNELS 3 Zrotation Xrotation Yrotation
      JOINT LeftFoot
      {
        OFFSET 3.16933 -46.5642 -3.96578
        CHANNELS 3 Zrotation Xrotation Yrotation
        JOINT LeftToeBase
        {
          OFFSET 0.346054 -6.02161 12.8035
          CHANNELS 3 Zrotation Xrotation Yrotation
          End Site
          {
            OFFSET 0.134235 -1.35082 5.13018
          }
        }
      }
    }
  }
  JOINT RightUpLeg
  {
    OFFSET -5.7928 -1.72406 10.6446
    CHANNELS 3 Zrotation Xrotation Yrotation
    JOINT RightLeg
    {
      OFFSET -2.57161 -44.7178 -7.85259
      CHANNELS 3 Zrotation Xrotation Yrotation
      JOINT RightFoot
      {
        OFFSET -3.10148 -46.5936 -4.03391
        CHANNELS 3 Zrotation Xrotation Yrotation
        JOINT RightToeBase
        {
          OFFSET -0.0828122 -6.13587 12.8035
          CHANNELS 3 Zrotation Xrotation Yrotation
          End Site
          {
            OFFSET -0.131328 -1.35082 5.13018
          }
        }
      }
    }
  }
}
MOTION
Frames:	10
Frame Time:	0.0333333
-147.48 104.912 -23.1266 6.58273 -74.8081 -81.3093 -70.1915 0 88.8779 80.9119 71.7873 5.10713 4.86704 19.1975 8.84001 -144.671 17.127 165.735 -148.377 54.562 166.093 2.01652 -1.72537 -22.6328 -100.347 62.6244 -92.461 -14.0574 52.9005 12.4405 6.63647 -0.196823 -1.64352 0.573209 -2.37885 31.2693 -90.3492 -46.0625 84.057 4.31009 -13.7406 17.8076 10.1841 -0.207424 -2.84725 -56.8426 -5.22836 91.4238 2.24938 27.0025 -13.0703 5.72108 8.0697 -0.62279 -5.96368 -21.7195 11.1733 -58.7895 -0.385167 78.1429 2.16827 25.0945 1.10058 -6.31279 -5.60809 1.02847 4.55821 8.48721 -16.5898 
-148.223 105.272 -23.0237 9.36275 -74.6602 -78.6301 -70.1915 0 88.8779 79.3363 71.406 6.38327 4.17439 19.0422 8.37878 -142.856 17.3022 166.182 -148.152 54.7874 166.047 1.99672 -1.38703 -21.8921 -101.659 63.2061 -92.5291 -14.0801 54.7443 12.9882 6.94255 -0.226675 -2.01353 0.639809 -2.76271 31.197 -92.0725 -48.2305 81.9386 4.90393 -13.4982 18.4589 10.3213 -0.185256 -2.54792 -57.9696 -4.30203 94.0687 2.58116 24.6201 -16.8928 5.37573 7.57678 -0.569501 -5.60151 -19.1696 11.8886 -60.2175 0.131808 78.6205 2.45545 22.4807 -0.74749 -6.36815 -6.2298 1.04251 3.44115 11.9911 -15.569 
-148.758 105.543 -22.9499 7.25302 -74.0073 -80.9555 -70.1915 0 88.8779 75.921 71.5255 10.206 3.35158 19.577 7.81834 -142.253 17.7718 167.605 -150.975 55.7155 167.337 2.07333 -0.839877 -22.1113 -101.918 62.935 -92.9391 -14.0281 55.2838 13.1612 6.57996 -0.302949 -3.44298 0.651354 -2.86254 30.9113 -92.1492 -50.0473 80.3481 5.38887 -12.2512 19.5273 10.321 -0.178194 -2.48513 -58.4607 -3.97818 95.6072 2.89025 22.168 -17.9305 5.07622 7.29166 -0.522281 -5.29978 -17.1721 11.8895 -60.5576 0.445504 78.9572 2.6524 20.3539 -1.05674 -6.30401 -6.72546 1.04636 2.34294 15.1482 -14.5421 
-149.207 105.738 -22.8327 4.10674 -73.9514 -84.4107 -70.1915 0 88.8779 74.6729 71.7853 11.99 2.68333 20.2076 7.04939 -142.14 17.5888 168.509 -151.127 55.3399 166.688 2.17555 -0.173067 -22.4374 -101.366 62.5634 -93.2992 -13.8729 54.2702 12.844 7.12192 -0.300486 -3.04178 0.619287 -2.67292 30.9545 -91.2443 -51.1058 80.1134 5.64165 -12.1439 19.9542 10.181 -0.180516 -2.59478 -59.6142 -3.4194 96.7862 2.42646 19.824 -18.0603 4.63685 7.02358 -0.450054 -4.98927 -15.323 11.5941 -61.3115 0.744376 79.1181 2.53655 18.5801 -0.295452 -6.08508 -6.61012 1.03045 1.65266 17.1214 -13.924 
-149.667 105.89 -22.6835 1.79697 -73.8912 -87.1732 -70.1915 0 88.8779 73.2795 71.9228 13.4106 2.14799 20.6507 6.46065 -141.639 17.5056 168.332 -148.902 54.8034 165.356 2.23257 0.254019 -22.542 -101.057 62.3112 -92.907 -13.6285 52.831 12.427 7.89726 -0.317349 -2.79628 0.599099 -2.53115 31.2256 -91.3206 -51.612 79.8947 5.45238 -13.2839 19.3001 10.5417 -0.183641 -2.47594 -60.9358 -3.0988 97.517 1.71644 17.4839 -18.2141 4.64776 7.16889 -0.447658 -4.82499 -13.9279 11.9743 -62.0306 0.955226 79.3539 2.27016 17.0309 0.29159 -5.8606 -6.56781 1.01503 1.12238 18.4143 -13.3873 
-150.143 105.945 -22.7505 -0.0907141 -73.5603 -89.1153 -70.1915 0 88.8779 70.9399 71.8816 15.9043 2.21032 20.8332 6.40709 -141.853 17.6975 168.79 -147.158 54.5581 164.646 2.31466 0.252329 -23.4309 -101.6 61.7892 -92.1868 -13.1205 51.2651 12.0157 9.61542 -0.438599 -3.43439 0.559313 -2.34625 30.7841 -91.5623 -51.8397 80.3822 4.8618 -15.003 18.0457 10.0476 -0.189091 -2.66601 -61.1901 -2.50288 98.1036 1.31881 16.3175 -17.9028 4.5273 6.97245 -0.431998 -4.63371 -13.2127 11.2623 -62.0819 1.28232 79.4913 2.43683 16.0869 0.594252 -5.90567 -6.20412 1.01056 0.978138 18.3104 -13.0544 
-150.522 105.953 -22.9864 -1.40914 -73.5776 -90.5817 -70.1915 0 88.8779 71.9506 72.0441 14.9266 1.33114 20.9469 6.37848 -142.293 17.6263 169.343 -147.775 54.5084 164.878 2.35578 0.158332 -24.0022 -102.663 61.2656 -90.8185 -12.9174 51.3445 12.0383 10.6286 -0.499646 -3.58347 0.525646 -2.17392 30.5124 -92.279 -51.9644 80.2596 4.45454 -17.7574 16.7534 9.09819 -0.195034 -2.99482 -61.037 -2.35563 98.16 1.2734 16.4408 -17.6822 4.77533 7.10206 -0.472751 -4.68261 -13.2841 11.5752 -61.6804 1.27327 79.4224 2.53845 16.617 0.890664 -5.9108 -6.57717 1.01849 0.657622 19.2099 -12.7918 
-150.827 105.93 -23.3266 -0.739622 -73.8018 -90.0991 -70.1915 0 88.8779 73.5626 72.1304 12.9617 0.709461 20.8649 6.52689 -143.342 17.6161 169.63 -148.58 54.475 164.379 2.3477 0.00213837 -24.1307 -103.773 61.4563 -89.7815 -12.5427 50.995 11.954 10.1004 -0.512092 -3.97338 0.511364 -2.12939 30.0704 -94.3096 -52.3923 79.1736 4.31216 -20.2843 15.7703 8.37919 -0.169721 -2.87116 -60.4794 -2.55356 97.769 1.54818 17.5481 -17.6569 4.78756 7.62326 -0.459341 -4.83627 -14.1297 11.8254 -61.2528 1.17843 79.3772 2.50024 17.5048 1.12052 -5.72933 -6.49231 1.00491 1.31745 18.9005 -13.9647 
-151.154 105.931 -23.4665 -1.62682 -74.2966 -90.8459 -70.1915 0 88.8779 75.3665 72.2489 11.7042 0.791705 21.0535 5.88693 -144.438 17.7091 170.357 -150.549 54.8754 165.351 2.39569 0.189487 -24.3925 -103.651 61.4303 -90.3773 -12.5597 51.2455 12.0168 8.24841 -0.403939 -3.80378 0.440376 -1.72058 29.7664 -94.4222 -52.988 78.9936 4.21199 -20.0052 15.7368 7.8564 -0.154282 -2.81059 -60.5654 -2.20006 97.906 1.72196 18.2192 -17.5838 4.77422 7.68807 -0.455025 -4.90354 -14.6635 11.7086 -61.6775 1.52613 79.3813 2.59253 17.472 1.10363 -5.82327 -6.36952 1.00842 1.23419 18.8153 -13.7666 
-151.421 105.93 -23.5097 -2.55091 -74.8365 -91.8623 -70.1915 0 88.8779 76.1862 72.402 11.1572 1.19778 21.3248 5.32866 -144.997 17.7979 171.228 -152.138 55.3036 167.308 2.39814 0.130539 -24.5026 -104.905 61.4623 -89.8029 -12.6164 52.9938 12.4836 7.80117 -0.421172 -4.3327 0.425521 -1.62738 29.8273 -92.6797 -53.2858 80.2457 4.21798 -18.9355 16.1876 7.662 -0.152482 -2.85016 -61.1913 -2.15422 97.9895 1.79022 18.1212 -17.5667 4.39954 7.46084 -0.392659 -4.88916 -14.2346 12.1619 -62.1388 1.589 79.2797 2.5694 17.6596 1.47169 -5.81581 -6.62068 1.01322 1.26205 19.2908 -14.0076 
